<svg aria-hidden="true" style="position: absolute; width: 0; height: 0; overflow: hidden;" version="1.1" xmlns="http://www.w3.org/2000/svg" xmlns:xlink="http://www.w3.org/1999/xlink">
<defs>
<symbol id="icon-inr" viewBox="0 0 14 28">
<path d="M14.031 7.344v1.594c0 0.281-0.219 0.5-0.5 0.5h-2.625c-0.484 3-2.781 4.953-6.328 5.375 2.328 2.484 4.813 5.484 7.172 8.375 0.125 0.141 0.156 0.359 0.063 0.531-0.078 0.172-0.25 0.281-0.453 0.281h-3.047c-0.156 0-0.297-0.063-0.391-0.187-2.516-3.016-4.828-5.781-7.781-8.922-0.094-0.094-0.141-0.219-0.141-0.344v-1.984c0-0.266 0.219-0.5 0.5-0.5h1.75c2.75 0 4.469-0.922 4.922-2.625h-6.672c-0.281 0-0.5-0.219-0.5-0.5v-1.594c0-0.281 0.219-0.5 0.5-0.5h6.453c-0.594-1.172-2-1.766-4.188-1.766h-2.266c-0.281 0-0.5-0.234-0.5-0.5v-2.078c0-0.281 0.219-0.5 0.5-0.5h13c0.281 0 0.5 0.219 0.5 0.5v1.594c0 0.281-0.219 0.5-0.5 0.5h-3.641c0.5 0.641 0.828 1.391 1 2.25h2.672c0.281 0 0.5 0.219 0.5 0.5z"></path>
</symbol>
<symbol id="icon-cart" viewBox="0 0 32 32">
<path d="M12 29c0 1.657-1.343 3-3 3s-3-1.343-3-3c0-1.657 1.343-3 3-3s3 1.343 3 3z"></path>
<path d="M32 29c0 1.657-1.343 3-3 3s-3-1.343-3-3c0-1.657 1.343-3 3-3s3 1.343 3 3z"></path>
<path d="M32 16v-12h-24c0-1.105-0.895-2-2-2h-6v2h4l1.502 12.877c-0.915 0.733-1.502 1.859-1.502 3.123 0 2.209 1.791 4 4 4h24v-2h-24c-1.105 0-2-0.895-2-2 0-0.007 0-0.014 0-0.020l26-3.98z"></path>
</symbol>
<symbol id="icon-star-empty" viewBox="0 0 32 32">
<path d="M32 12.408l-11.056-1.607-4.944-10.018-4.944 10.018-11.056 1.607 8 7.798-1.889 11.011 9.889-5.199 9.889 5.199-1.889-11.011 8-7.798zM16 23.547l-6.983 3.671 1.334-7.776-5.65-5.507 7.808-1.134 3.492-7.075 3.492 7.075 7.807 1.134-5.65 5.507 1.334 7.776-6.983-3.671z"></path>
</symbol>
</defs>
</svg>
